<?xml version="1.0" encoding="UTF-8"?>
<svg width="247px" height="288px" viewBox="0 0 247 288" version="1.1" xmlns="http://www.w3.org/2000/svg" xmlns:xlink="http://www.w3.org/1999/xlink">
    <!-- Generator: Sketch 41 (35326) - http://www.bohemiancoding.com/sketch -->
    <title>Horloges</title>
    <desc>Created with Sketch.</desc>
    <defs>
        <path d="M200.779045,194.379733 C188.195729,225.244555 157.888324,246.998552 122.5,246.998552 C75.8319386,246.998552 38,209.166613 38,162.498552 C38,115.99727 75.5620181,78.2690684 122,78 L122,161.998552 L200.779045,194.379733 Z M145,42.8649115 C202.957951,53.0392715 247,103.62635 247,164.5 C247,232.707167 191.707167,288 123.5,288 C55.2928334,288 0,232.707167 0,164.5 C0,103.276728 44.5494047,52.4585263 103,42.6936099 L103,33 L87.9965936,33 C83.5801969,33 80,29.4213488 80,24.9905637 L80,8.00943632 C80,3.58594679 83.5845367,0 87.9965936,0 L157.003406,0 C161.419803,0 165,3.57865123 165,8.00943632 L165,24.9905637 C165,29.4140532 161.415463,33 157.003406,33 L145,33 L145,42.8649115 Z M122.5,264 C178.556902,264 224,218.556902 224,162.5 C224,106.443098 178.556902,61 122.5,61 C66.4430979,61 21,106.443098 21,162.5 C21,218.556902 66.4430979,264 122.5,264 Z" id="path-1"></path>
    </defs>
    <g id="Page-1" stroke="none" stroke-width="1" fill="none" fill-rule="evenodd">
        <mask id="mask-2" fill="white">
            <use xlink:href="#path-1"></use>
        </mask>
        <use id="Horloges" fill="#000000" xlink:href="#path-1"></use>
    </g>
</svg>